<svg version="1.1" viewBox="0.0 0.0 50.0 50.0" fill="none" stroke="none" stroke-linecap="square" stroke-miterlimit="10" xmlns:xlink="http://www.w3.org/1999/xlink" xmlns="http://www.w3.org/2000/svg"><clipPath id="p.0"><path d="m0 0l50.0 0l0 50.0l-50.0 0l0 -50.0z" clip-rule="nonzero"/></clipPath><g clip-path="url(#p.0)"><path fill="#000000" fill-opacity="0.0" d="m0 0l50.0 0l0 50.0l-50.0 0z" fill-rule="evenodd"/><path fill="#ffffff" d="m32.4369 14.780404l0 0c0 -1.5220442 1.2409134 -2.7559052 2.7716522 -2.7559052l0 0c0.73508835 0 1.4400711 0.29035378 1.959858 0.8071861c0.519783 0.51683235 0.8117981 1.2178078 0.8117981 1.948719l0 0c0 1.5220442 -1.2409134 2.755906 -2.771656 2.755906l0 0c-1.5307388 0 -2.7716522 -1.2338619 -2.7716522 -2.755906z" fill-rule="evenodd"/><path stroke="#ffffff" stroke-width="2.0" stroke-linejoin="round" stroke-linecap="butt" d="m32.4369 14.780404l0 0c0 -1.5220442 1.2409134 -2.7559052 2.7716522 -2.7559052l0 0c0.73508835 0 1.4400711 0.29035378 1.959858 0.8071861c0.519783 0.51683235 0.8117981 1.2178078 0.8117981 1.948719l0 0c0 1.5220442 -1.2409134 2.755906 -2.771656 2.755906l0 0c-1.5307388 0 -2.7716522 -1.2338619 -2.7716522 -2.755906z" fill-rule="evenodd"/><path fill="#ffffff" d="m12.052155 14.780404l0 0c0 -1.5220442 1.2409115 -2.7559052 2.7716532 -2.7559052l0 0c0.73508835 0 1.4400682 0.29035378 1.9598551 0.8071861c0.5197849 0.51683235 0.8117981 1.2178078 0.8117981 1.948719l0 0c0 1.5220442 -1.2409115 2.755906 -2.7716532 2.755906l0 0c-1.5307417 0 -2.7716532 -1.2338619 -2.7716532 -2.755906z" fill-rule="evenodd"/><path stroke="#ffffff" stroke-width="2.0" stroke-linejoin="round" stroke-linecap="butt" d="m12.052155 14.780404l0 0c0 -1.5220442 1.2409115 -2.7559052 2.7716532 -2.7559052l0 0c0.73508835 0 1.4400682 0.29035378 1.9598551 0.8071861c0.5197849 0.51683235 0.8117981 1.2178078 0.8117981 1.948719l0 0c0 1.5220442 -1.2409115 2.755906 -2.7716532 2.755906l0 0c-1.5307417 0 -2.7716532 -1.2338619 -2.7716532 -2.755906z" fill-rule="evenodd"/><path fill="#ffffff" d="m11.567047 35.601868l0 0c0 -1.5220413 1.2409115 -2.7559052 2.7716541 -2.7559052l0 0c0.73508835 0 1.4400692 0.29035568 1.9598541 0.8071861c0.51978683 0.51683426 0.8118 1.2178078 0.8118 1.948719l0 0c0 1.5220451 -1.2409124 2.755909 -2.7716541 2.755909l0 0c-1.5307426 0 -2.7716541 -1.2338638 -2.7716541 -2.755909z" fill-rule="evenodd"/><path stroke="#ffffff" stroke-width="2.0" stroke-linejoin="round" stroke-linecap="butt" d="m11.567047 35.601868l0 0c0 -1.5220413 1.2409115 -2.7559052 2.7716541 -2.7559052l0 0c0.73508835 0 1.4400692 0.29035568 1.9598541 0.8071861c0.51978683 0.51683426 0.8118 1.2178078 0.8118 1.948719l0 0c0 1.5220451 -1.2409124 2.755909 -2.7716541 2.755909l0 0c-1.5307426 0 -2.7716541 -1.2338638 -2.7716541 -2.755909z" fill-rule="evenodd"/><path fill="#ffffff" d="m32.4369 35.601868l0 0c0 -1.5220413 1.2409134 -2.7559052 2.7716522 -2.7559052l0 0c0.73508835 0 1.4400711 0.29035568 1.959858 0.8071861c0.519783 0.51683426 0.8117981 1.2178078 0.8117981 1.948719l0 0c0 1.5220451 -1.2409134 2.755909 -2.771656 2.755909l0 0c-1.5307388 0 -2.7716522 -1.2338638 -2.7716522 -2.755909z" fill-rule="evenodd"/><path stroke="#ffffff" stroke-width="2.0" stroke-linejoin="round" stroke-linecap="butt" d="m32.4369 35.601868l0 0c0 -1.5220413 1.2409134 -2.7559052 2.7716522 -2.7559052l0 0c0.73508835 0 1.4400711 0.29035568 1.959858 0.8071861c0.519783 0.51683426 0.8117981 1.2178078 0.8117981 1.948719l0 0c0 1.5220451 -1.2409134 2.755909 -2.771656 2.755909l0 0c-1.5307388 0 -2.7716522 -1.2338638 -2.7716522 -2.755909z" fill-rule="evenodd"/><path fill="#000000" fill-opacity="0.0" d="m17.110897 25.011406l0 0c0 -4.34 3.5535202 -7.858267 7.937008 -7.858267l0 0c2.1050262 0 4.1238346 0.8279209 5.6123123 2.301632c1.4884796 1.473711 2.3246956 3.4724922 2.3246956 5.556635l0 0c0 4.340002 -3.5535183 7.8582687 -7.937008 7.8582687l0 0c-4.3834877 0 -7.937008 -3.5182667 -7.937008 -7.8582687z" fill-rule="evenodd"/><path stroke="#ffffff" stroke-width="2.0" stroke-linejoin="round" stroke-linecap="butt" d="m17.110897 25.011406l0 0c0 -4.34 3.5535202 -7.858267 7.937008 -7.858267l0 0c2.1050262 0 4.1238346 0.8279209 5.6123123 2.301632c1.4884796 1.473711 2.3246956 3.4724922 2.3246956 5.556635l0 0c0 4.340002 -3.5535183 7.8582687 -7.937008 7.8582687l0 0c-4.3834877 0 -7.937008 -3.5182667 -7.937008 -7.8582687z" fill-rule="evenodd"/><path fill="#000000" fill-opacity="0.0" d="m37.982265 24.999828l0 0c0 -2.2874165 1.8754692 -4.141733 4.1889763 -4.141733l0 0c1.1109848 0 2.176468 0.4363594 2.9620552 1.2130852c0.7855835 0.77672577 1.2269211 1.8301926 1.2269211 2.928648l0 0c0 2.2874146 -1.8754692 4.1417313 -4.1889763 4.1417313l0 0c-2.313507 0 -4.1889763 -1.8543167 -4.1889763 -4.1417313z" fill-rule="evenodd"/><path stroke="#ffffff" stroke-width="2.0" stroke-linejoin="round" stroke-linecap="butt" d="m37.982265 24.999828l0 0c0 -2.2874165 1.8754692 -4.141733 4.1889763 -4.141733l0 0c1.1109848 0 2.176468 0.4363594 2.9620552 1.2130852c0.7855835 0.77672577 1.2269211 1.8301926 1.2269211 2.928648l0 0c0 2.2874146 -1.8754692 4.1417313 -4.1889763 4.1417313l0 0c-2.313507 0 -4.1889763 -1.8543167 -4.1889763 -4.1417313z" fill-rule="evenodd"/><path fill="#000000" fill-opacity="0.0" d="m3.6404216 24.999828l0 0c0 -2.2874165 1.8754685 -4.141733 4.1889763 -4.141733l0 0c1.1109862 0 2.1764684 0.4363594 2.9620538 1.2130852c0.7855854 0.77672577 1.226923 1.8301926 1.226923 2.928648l0 0c0 2.2874146 -1.8754692 4.1417313 -4.188977 4.1417313l0 0c-2.3135076 0 -4.1889763 -1.8543167 -4.1889763 -4.1417313z" fill-rule="evenodd"/><path stroke="#ffffff" stroke-width="2.0" stroke-linejoin="round" stroke-linecap="butt" d="m3.6404216 24.999828l0 0c0 -2.2874165 1.8754685 -4.141733 4.1889763 -4.141733l0 0c1.1109862 0 2.1764684 0.4363594 2.9620538 1.2130852c0.7855854 0.77672577 1.226923 1.8301926 1.226923 2.928648l0 0c0 2.2874146 -1.8754692 4.1417313 -4.188977 4.1417313l0 0c-2.3135076 0 -4.1889763 -1.8543167 -4.1889763 -4.1417313z" fill-rule="evenodd"/><path fill="#000000" fill-opacity="0.0" d="m20.81104 42.14926l0 0c0 -2.2874146 1.8754673 -4.1417313 4.1889763 -4.1417313l0 0c1.1109848 0 2.176468 0.4363594 2.9620533 1.2130852c0.7855854 0.77672577 1.226923 1.8301926 1.226923 2.928646l0 0c0 2.2874146 -1.8754692 4.1417313 -4.1889763 4.1417313l0 0c-2.313509 0 -4.1889763 -1.8543167 -4.1889763 -4.1417313z" fill-rule="evenodd"/><path stroke="#ffffff" stroke-width="2.0" stroke-linejoin="round" stroke-linecap="butt" d="m20.81104 42.14926l0 0c0 -2.2874146 1.8754673 -4.1417313 4.1889763 -4.1417313l0 0c1.1109848 0 2.176468 0.4363594 2.9620533 1.2130852c0.7855854 0.77672577 1.226923 1.8301926 1.226923 2.928646l0 0c0 2.2874146 -1.8754692 4.1417313 -4.1889763 4.1417313l0 0c-2.313509 0 -4.1889763 -1.8543167 -4.1889763 -4.1417313z" fill-rule="evenodd"/><path fill="#000000" fill-opacity="0.0" d="m20.81104 7.850394l0 0c0 -2.2874155 1.8754673 -4.141732 4.1889763 -4.141732l0 0c1.1109848 0 2.176468 0.43636012 2.9620533 1.2130854c0.7855854 0.7767253 1.226923 1.8301911 1.226923 2.928647l0 0c0 2.287416 -1.8754692 4.1417317 -4.1889763 4.1417317l0 0c-2.313509 0 -4.1889763 -1.8543158 -4.1889763 -4.1417317z" fill-rule="evenodd"/><path stroke="#ffffff" stroke-width="2.0" stroke-linejoin="round" stroke-linecap="butt" d="m20.81104 7.850394l0 0c0 -2.2874155 1.8754673 -4.141732 4.1889763 -4.141732l0 0c1.1109848 0 2.176468 0.43636012 2.9620533 1.2130854c0.7855854 0.7767253 1.226923 1.8301911 1.226923 2.928647l0 0c0 2.287416 -1.8754692 4.1417317 -4.1889763 4.1417317l0 0c-2.313509 0 -4.1889763 -1.8543158 -4.1889763 -4.1417317z" fill-rule="evenodd"/><path fill="#000000" fill-opacity="0.0" d="m25.047905 17.15314l-0.062992096 -5.1653547" fill-rule="evenodd"/><path stroke="#ffffff" stroke-width="2.0" stroke-linejoin="round" stroke-linecap="butt" d="m25.047905 17.15314l-0.062992096 -5.1653547" fill-rule="evenodd"/><path fill="#000000" fill-opacity="0.0" d="m30.660217 19.454771l2.582676 -2.7401562" fill-rule="evenodd"/><path stroke="#ffffff" stroke-width="2.0" stroke-linejoin="round" stroke-linecap="butt" d="m30.660217 19.454771l2.582676 -2.7401562" fill-rule="evenodd"/><path fill="#000000" fill-opacity="0.0" d="m32.984913 25.011406l5.0078735 0" fill-rule="evenodd"/><path stroke="#ffffff" stroke-width="2.0" stroke-linejoin="round" stroke-linecap="butt" d="m32.984913 25.011406l5.0078735 0" fill-rule="evenodd"/><path fill="#000000" fill-opacity="0.0" d="m30.660217 30.56804l2.582676 3.0866146" fill-rule="evenodd"/><path stroke="#ffffff" stroke-width="2.0" stroke-linejoin="round" stroke-linecap="butt" d="m30.660217 30.56804l2.582676 3.0866146" fill-rule="evenodd"/><path fill="#000000" fill-opacity="0.0" d="m25.047905 32.869675l-0.062992096 5.1338577" fill-rule="evenodd"/><path stroke="#ffffff" stroke-width="2.0" stroke-linejoin="round" stroke-linecap="butt" d="m25.047905 32.869675l-0.062992096 5.1338577" fill-rule="evenodd"/><path fill="#000000" fill-opacity="0.0" d="m19.435593 30.56804l-3.1496067 3.0866146" fill-rule="evenodd"/><path stroke="#ffffff" stroke-width="2.0" stroke-linejoin="round" stroke-linecap="butt" d="m19.435593 30.56804l-3.1496067 3.0866146" fill-rule="evenodd"/><path fill="#000000" fill-opacity="0.0" d="m19.435593 19.454771l-2.645668 -2.7401562" fill-rule="evenodd"/><path stroke="#ffffff" stroke-width="2.0" stroke-linejoin="round" stroke-linecap="butt" d="m19.435593 19.454771l-2.645668 -2.7401562" fill-rule="evenodd"/><path fill="#000000" fill-opacity="0.0" d="m17.110897 25.011406l-5.1023617 0" fill-rule="evenodd"/><path stroke="#ffffff" stroke-width="2.0" stroke-linejoin="round" stroke-linecap="butt" d="m17.110897 25.011406l-5.1023617 0" fill-rule="evenodd"/></g></svg>